<svg width="64" height="64" viewBox="0 0 64 64" fill="none" xmlns="http://www.w3.org/2000/svg" xmlns:xlink="http://www.w3.org/1999/xlink">
<path d="M32,1.4C15.126,1.4 1.4,15.126 1.4,32C1.4,48.874 15.126,62.6 32,62.6C48.874,62.6 62.6,48.874 62.6,32C62.6,15.126 48.874,1.4 32,1.4L32,1.4ZM32,57.4C23.958,57.4 16.79,53.632 12.134,47.78C15.378,43.536 19.902,40.451 25.036,38.98C23.188,37.806 21.665,36.184 20.61,34.264C19.555,32.345 19.001,30.19 19,28C19,20.832 24.832,15 32,15C39.168,15 45,20.832 45,28C44.999,30.191 44.444,32.345 43.389,34.265C42.334,36.184 40.811,37.807 38.962,38.982C44.098,40.452 48.623,43.537 51.866,47.782C47.21,53.632 40.042,57.4 32,57.4Z" fill="#717171"/>
<circle cx="54" cy="10" r="10" fill="#FF385C" stroke="#FFFFFF" stroke-width="1" stroke-miterlimit="3.999327"/>
</svg>
