<svg width="28" height="28" viewBox="0 0 28 28" fill="none" xmlns="http://www.w3.org/2000/svg" xmlns:xlink="http://www.w3.org/1999/xlink">
<path d="M26.543,24.337L20.662,18.456C22.078,16.571 22.843,14.277 22.84,11.92C22.84,5.899 17.941,1 11.92,1C5.899,1 1,5.899 1,11.92C1,17.941 5.899,22.84 11.92,22.84C14.277,22.843 16.571,22.078 18.456,20.663L24.337,26.543C24.635,26.809 25.023,26.951 25.422,26.94C25.821,26.929 26.201,26.765 26.483,26.483C26.765,26.201 26.929,25.821 26.94,25.422C26.951,25.023 26.809,24.635 26.543,24.337L26.543,24.337ZM4.12,11.92C4.12,10.377 4.577,8.869 5.435,7.587C6.292,6.304 7.51,5.304 8.935,4.714C10.36,4.123 11.929,3.969 13.442,4.27C14.955,4.571 16.345,5.314 17.435,6.405C18.526,7.495 19.269,8.885 19.57,10.398C19.871,11.911 19.717,13.48 19.126,14.905C18.536,16.33 17.536,17.548 16.253,18.405C14.971,19.263 13.463,19.72 11.92,19.72C9.852,19.718 7.87,18.895 6.407,17.433C4.945,15.97 4.122,13.988 4.12,11.92L4.12,11.92Z" fill="#FFFFFF"/>
</svg>
