<svg width="28" height="26" viewBox="0 0 28 26" fill="none" xmlns="http://www.w3.org/2000/svg" xmlns:xlink="http://www.w3.org/1999/xlink">
<path d="M26.543,23.337L20.662,17.456C22.078,15.571 22.843,13.277 22.84,10.92C22.84,4.899 17.941,0 11.92,0C5.899,0 1,4.899 1,10.92C1,16.941 5.899,21.84 11.92,21.84C14.277,21.843 16.571,21.078 18.456,19.662L24.337,25.543C24.635,25.809 25.023,25.951 25.422,25.94C25.821,25.929 26.201,25.765 26.483,25.483C26.765,25.201 26.929,24.821 26.94,24.422C26.951,24.023 26.809,23.635 26.543,23.337L26.543,23.337ZM4.12,10.92C4.12,9.377 4.577,7.869 5.435,6.587C6.292,5.304 7.51,4.304 8.935,3.714C10.36,3.123 11.929,2.969 13.442,3.27C14.955,3.571 16.345,4.314 17.435,5.405C18.526,6.495 19.269,7.885 19.57,9.398C19.871,10.911 19.717,12.48 19.126,13.905C18.536,15.33 17.536,16.548 16.253,17.405C14.971,18.263 13.463,18.72 11.92,18.72C9.852,18.718 7.87,17.895 6.407,16.433C4.945,14.97 4.122,12.988 4.12,10.92L4.12,10.92Z" fill="#FFFFFF"/>
</svg>
