<svg width="44" height="44" viewBox="0 0 44 44" fill="none" xmlns="http://www.w3.org/2000/svg" xmlns:xlink="http://www.w3.org/1999/xlink">
<path d="M22,0.458C33.897,0.458 43.541,10.103 43.541,22C43.541,33.897 33.897,43.542 22,43.542C10.103,43.542 0.458,33.897 0.458,22C0.458,10.103 10.103,0.458 22,0.458L22,0.458ZM22,3.208C11.621,3.208 3.208,11.622 3.208,22C3.208,32.378 11.621,40.792 22,40.792C32.378,40.792 40.791,32.378 40.791,22C40.791,11.622 32.378,3.208 22,3.208L22,3.208ZM23.375,7.333L23.375,21.206L35.389,28.143L34.014,30.524L20.625,22.794L20.625,7.333L23.375,7.333Z" fill="#000000"/>
</svg>
