<svg width="26" height="26" viewBox="0 0 26 26" fill="none" xmlns="http://www.w3.org/2000/svg" xmlns:xlink="http://www.w3.org/1999/xlink">
<path d="M24.543,22.337L18.663,16.456C20.078,14.571 20.843,12.277 20.84,9.92C20.84,3.899 15.941,-1 9.92,-1C3.899,-1 -1,3.899 -1,9.92C-1,15.941 3.899,20.84 9.92,20.84C12.277,20.843 14.571,20.078 16.456,18.662L22.337,24.543C22.635,24.809 23.023,24.951 23.422,24.94C23.821,24.929 24.201,24.765 24.483,24.483C24.765,24.201 24.929,23.821 24.94,23.422C24.951,23.023 24.809,22.635 24.543,22.337L24.543,22.337ZM2.12,9.92C2.12,8.377 2.577,6.869 3.435,5.587C4.292,4.304 5.51,3.304 6.935,2.714C8.36,2.123 9.929,1.969 11.442,2.27C12.955,2.571 14.345,3.314 15.435,4.405C16.526,5.495 17.269,6.885 17.57,8.398C17.871,9.911 17.717,11.48 17.126,12.905C16.536,14.33 15.536,15.548 14.253,16.405C12.971,17.263 11.463,17.72 9.92,17.72C7.852,17.718 5.87,16.895 4.407,15.433C2.945,13.97 2.122,11.988 2.12,9.92L2.12,9.92Z" fill="#FFFFFF"/>
</svg>
