<svg width="24" height="24" viewBox="0 0 24 24" fill="none" xmlns="http://www.w3.org/2000/svg" xmlns:xlink="http://www.w3.org/1999/xlink">
<path d="M11.321,1.184L8.228,7.848L0.833,8.8C0.69,8.819 0.556,8.877 0.446,8.97C0.335,9.062 0.254,9.184 0.211,9.321C0.168,9.458 0.166,9.605 0.204,9.743C0.242,9.882 0.319,10.006 0.426,10.102L5.896,15.026L4.422,22.415C4.394,22.557 4.407,22.704 4.46,22.838C4.513,22.972 4.604,23.088 4.721,23.172C4.838,23.256 4.978,23.305 5.122,23.312C5.266,23.318 5.409,23.283 5.534,23.211L12,19.463L18.469,23.211C18.594,23.283 18.737,23.318 18.881,23.311C19.025,23.304 19.164,23.256 19.281,23.172C19.398,23.088 19.489,22.972 19.542,22.838C19.595,22.704 19.608,22.557 19.58,22.416L18.107,15.026L23.576,10.102C23.683,10.006 23.76,9.882 23.798,9.743C23.836,9.605 23.833,9.459 23.791,9.322C23.748,9.185 23.667,9.063 23.557,8.971C23.447,8.878 23.313,8.82 23.171,8.801L15.776,7.848L12.68,1.184C12.62,1.054 12.524,0.945 12.404,0.868C12.283,0.791 12.143,0.75 12,0.75C11.857,0.75 11.717,0.791 11.597,0.868C11.476,0.945 11.38,1.054 11.32,1.184L11.321,1.184Z" clip-rule="evenodd" fill-rule="evenodd" fill="#000000"/>
</svg>
