<svg width="32" height="32" viewBox="0 0 32 32" fill="none" xmlns="http://www.w3.org/2000/svg" xmlns:xlink="http://www.w3.org/1999/xlink">
<path d="M16.004,0.5C20.12,0.512 24.063,2.156 26.968,5.071C29.873,7.987 31.503,11.936 31.5,16.052C31.486,20.074 29.909,23.934 27.102,26.815C24.296,29.696 20.479,31.373 16.458,31.492L15.966,31.5C11.943,31.491 8.081,29.919 5.196,27.115C2.311,24.311 0.629,20.495 0.506,16.474L0.5,15.984C0.504,11.875 2.14,7.936 5.047,5.033C7.954,2.129 11.895,0.499 16.004,0.5L16.004,0.5ZM19.902,17.5L12.096,17.5C12.406,23.294 14.448,28.186 15.868,28.486L16.004,28.5C17.364,28.496 19.444,23.77 19.868,18.04L19.902,17.5ZM28.412,17.5L22.908,17.5C22.726,21.42 21.848,25.066 20.532,27.652C22.562,26.861 24.35,25.554 25.72,23.86C27.09,22.166 27.993,20.144 28.342,17.994L28.412,17.5ZM9.09,17.5L3.59,17.5C3.862,19.745 4.737,21.874 6.123,23.661C7.508,25.448 9.352,26.827 11.458,27.65C10.228,25.234 9.386,21.9 9.134,18.278L9.09,17.498L9.09,17.5ZM11.466,4.348L11.236,4.44C9.184,5.288 7.394,6.666 6.05,8.434C4.706,10.202 3.857,12.296 3.59,14.5L9.09,14.5C9.26,10.84 10.032,7.42 11.208,4.88L11.466,4.348ZM15.99,3.5C14.586,3.504 12.422,8.524 12.096,14.5L19.904,14.5C19.592,8.694 17.548,3.814 16.12,3.512L15.99,3.498L15.99,3.5ZM20.55,4.364L20.596,4.464C21.882,7.04 22.734,10.632 22.91,14.5L28.406,14.5C28.129,12.26 27.252,10.136 25.87,8.352C24.487,6.569 22.648,5.191 20.548,4.364L20.55,4.364Z" fill="#000000"/>
</svg>
