<svg width="60" height="64" viewBox="0 0 60 64" fill="none" xmlns="http://www.w3.org/2000/svg" xmlns:xlink="http://www.w3.org/1999/xlink">
<path d="M58.773,45.42C58.486,44.615 58.15,43.835 57.831,43.113C57.34,42.002 56.826,40.889 56.328,39.813L56.289,39.728C51.851,30.118 47.088,20.376 42.132,10.774L41.921,10.366C41.416,9.386 40.893,8.372 40.357,7.376C39.721,6.115 38.949,4.927 38.055,3.833C37.049,2.633 35.791,1.668 34.371,1.005C32.95,0.343 31.401,0 29.833,0C28.265,0 26.716,0.344 25.296,1.006C23.875,1.669 22.618,2.635 21.612,3.835C20.719,4.93 19.948,6.117 19.311,7.377C18.77,8.382 18.243,9.406 17.733,10.395L17.537,10.774C12.581,20.377 7.818,30.118 3.38,39.728L3.316,39.868C2.827,40.926 2.321,42.02 1.838,43.113C1.519,43.834 1.184,44.613 0.897,45.421C0.074,47.621 -0.188,49.991 0.134,52.317C0.475,54.668 1.426,56.889 2.892,58.761C4.358,60.632 6.289,62.089 8.492,62.986C10.157,63.66 11.936,64.004 13.732,64C14.296,64 14.86,63.967 15.421,63.902C17.692,63.612 19.883,62.873 21.864,61.728C24.463,60.268 27.03,58.128 29.835,55.07C32.639,58.128 35.206,60.268 37.805,61.728C39.786,62.873 41.977,63.612 44.249,63.902C44.809,63.967 45.373,64 45.937,64C47.733,64.004 49.512,63.66 51.177,62.986C53.38,62.089 55.311,60.632 56.777,58.761C58.243,56.889 59.194,54.668 59.536,52.317C59.857,49.99 59.595,47.621 58.773,45.42ZM29.835,48.754C26.363,44.354 24.136,40.268 23.354,36.842C23.034,35.558 22.958,34.226 23.131,32.915C23.268,31.953 23.621,31.035 24.164,30.23C24.833,29.363 25.692,28.661 26.675,28.178C27.658,27.695 28.739,27.444 29.835,27.444C30.931,27.444 32.012,27.695 32.995,28.178C33.978,28.661 34.837,29.363 35.506,30.23C36.049,31.036 36.402,31.954 36.539,32.916C36.711,34.228 36.635,35.561 36.315,36.845C35.532,40.27 33.305,44.355 29.835,48.754ZM55.481,51.738C55.242,53.382 54.577,54.935 53.552,56.243C52.527,57.552 51.177,58.57 49.637,59.198C48.079,59.822 46.388,60.043 44.721,59.841C42.989,59.618 41.32,59.048 39.814,58.165C37.5,56.865 35.158,54.87 32.523,51.942C36.718,46.769 39.338,42.001 40.308,37.754C40.745,35.968 40.839,34.116 40.587,32.295C40.358,30.726 39.776,29.23 38.884,27.919C37.839,26.504 36.476,25.354 34.904,24.561C33.332,23.768 31.596,23.355 29.835,23.355C28.074,23.355 26.338,23.768 24.766,24.561C23.194,25.353 21.831,26.503 20.786,27.918C19.894,29.229 19.312,30.725 19.083,32.293C18.83,34.113 18.925,35.964 19.36,37.75C20.33,41.999 22.95,46.768 27.146,51.943C24.511,54.87 22.169,56.865 19.855,58.165C18.349,59.048 16.68,59.618 14.948,59.841C13.281,60.043 11.591,59.822 10.032,59.198C8.492,58.57 7.142,57.552 6.117,56.243C5.092,54.935 4.427,53.382 4.188,51.738C3.959,50.067 4.154,48.365 4.756,46.789C4.985,46.146 5.253,45.514 5.585,44.764C6.055,43.702 6.553,42.623 7.035,41.58L7.1,41.439C11.513,31.884 16.25,22.196 21.179,12.646L21.375,12.266C21.877,11.292 22.396,10.285 22.919,9.313C23.42,8.31 24.026,7.363 24.728,6.489C25.349,5.738 26.129,5.134 27.012,4.719C27.895,4.304 28.858,4.089 29.834,4.088C30.809,4.088 31.773,4.303 32.656,4.718C33.539,5.133 34.319,5.737 34.94,6.488C35.642,7.362 36.248,8.308 36.749,9.311C37.268,10.275 37.782,11.272 38.28,12.237L38.49,12.646C43.419,22.196 48.156,31.883 52.569,41.44L52.609,41.526C53.1,42.587 53.607,43.684 54.084,44.764C54.416,45.515 54.685,46.148 54.913,46.789C55.515,48.365 55.711,50.067 55.481,51.738Z" fill="#FF385C"/>
</svg>
