<svg width="14" height="22" viewBox="0 0 14 22" fill="none" xmlns="http://www.w3.org/2000/svg" xmlns:xlink="http://www.w3.org/1999/xlink">
<path d="M11.293,9.47L10.393,10.67L10.393,10.67L11.293,9.47ZM-0.9,2.2L10.393,10.67L12.193,8.27L0.9,-0.2L-0.9,2.2ZM10.393,10.67C10.27,10.577 10.086,10.349 10.086,10C10.086,9.651 10.27,9.423 10.393,9.33L12.193,11.73C12.707,11.345 13.086,10.733 13.086,10C13.086,9.267 12.707,8.655 12.193,8.27L10.393,10.67ZM10.393,9.33L-0.9,17.8L0.9,20.2L12.193,11.73L10.393,9.33Z" fill="#000000"/>
</svg>
